<mxfile host="app.diagrams.net" modified="2024-04-27T07:46:53.629Z" agent="Mozilla/5.0 (Windows NT 10.0; Win64; x64) AppleWebKit/537.36 (KHTML, like Gecko) Chrome/124.0.0.0 Safari/537.36" etag="gpfLCumCL5wG_E9JxPU1" version="24.2.7" type="google">
  <diagram name="Page-1" id="90a13364-a465-7bf4-72fc-28e22215d7a0">
    <mxGraphModel dx="2580" dy="2848" grid="1" gridSize="10" guides="1" tooltips="1" connect="1" arrows="1" fold="1" page="1" pageScale="1.5" pageWidth="1169" pageHeight="826" background="none" math="0" shadow="0">
      <root>
        <mxCell id="0" style=";html=1;" />
        <mxCell id="1" style=";html=1;" parent="0" />
        <mxCell id="x2cQxs7v7Ajx9AN8LlFZ-24" value="&lt;div&gt;&lt;b&gt;def &lt;/b&gt;extract_features(outcome, total_data):&lt;/div&gt;&lt;div&gt;&lt;span style=&quot;background-color: initial; white-space: pre;&quot;&gt;&#x9;&lt;/span&gt;&lt;/div&gt;&lt;div&gt;&lt;span style=&quot;background-color: initial;&quot;&gt;&lt;span style=&quot;white-space: pre;&quot;&gt;&#x9;&lt;/span&gt;target_func[outcome](total_data)&lt;/span&gt;&lt;br&gt;&lt;/div&gt;&lt;div&gt;&lt;span style=&quot;background-color: initial;&quot;&gt;&lt;br&gt;&lt;/span&gt;&lt;/div&gt;&lt;div&gt;&lt;span style=&quot;white-space: pre;&quot;&gt;&#x9;&lt;/span&gt;&lt;b&gt;return &lt;/b&gt;concated_group&lt;br&gt;&lt;/div&gt;" style="whiteSpace=wrap;html=1;shadow=1;fontSize=18;fillColor=#f5f5f5;strokeColor=#666666;align=left;" parent="1" vertex="1">
          <mxGeometry x="440" y="10" width="480" height="130" as="geometry" />
        </mxCell>
        <mxCell id="ELFRvHjd7mSDhtuIkThb-31" style="edgeStyle=orthogonalEdgeStyle;rounded=0;orthogonalLoop=1;jettySize=auto;html=1;exitX=1;exitY=0.5;exitDx=0;exitDy=0;entryX=0;entryY=0.5;entryDx=0;entryDy=0;" edge="1" parent="1" source="x2cQxs7v7Ajx9AN8LlFZ-25" target="x2cQxs7v7Ajx9AN8LlFZ-26">
          <mxGeometry relative="1" as="geometry" />
        </mxCell>
        <mxCell id="ELFRvHjd7mSDhtuIkThb-33" style="edgeStyle=orthogonalEdgeStyle;rounded=0;orthogonalLoop=1;jettySize=auto;html=1;exitX=1;exitY=0.5;exitDx=0;exitDy=0;entryX=0;entryY=0.5;entryDx=0;entryDy=0;" edge="1" parent="1" source="x2cQxs7v7Ajx9AN8LlFZ-25" target="Af6Ompb2Hb0SvwPUi7oJ-3">
          <mxGeometry relative="1" as="geometry" />
        </mxCell>
        <mxCell id="ELFRvHjd7mSDhtuIkThb-34" style="edgeStyle=orthogonalEdgeStyle;rounded=0;orthogonalLoop=1;jettySize=auto;html=1;exitX=1;exitY=0.5;exitDx=0;exitDy=0;entryX=0;entryY=0.5;entryDx=0;entryDy=0;" edge="1" parent="1" source="x2cQxs7v7Ajx9AN8LlFZ-25" target="Af6Ompb2Hb0SvwPUi7oJ-8">
          <mxGeometry relative="1" as="geometry" />
        </mxCell>
        <mxCell id="x2cQxs7v7Ajx9AN8LlFZ-25" value="main() {&amp;nbsp;&lt;div&gt;&lt;span style=&quot;background-color: initial;&quot;&gt;&lt;br&gt;&lt;/span&gt;&lt;/div&gt;&lt;div&gt;&lt;span style=&quot;background-color: initial;&quot;&gt;extract_features()&lt;/span&gt;&lt;br&gt;&lt;/div&gt;&lt;div&gt;&lt;span style=&quot;background-color: initial;&quot;&gt;&lt;br&gt;&lt;/span&gt;&lt;/div&gt;&lt;div&gt;save_performance_result()&lt;/div&gt;&lt;div&gt;&lt;br&gt;&lt;/div&gt;&lt;div&gt;save_concat_cv_result()&lt;/div&gt;&lt;div&gt;save_best_result()&lt;/div&gt;&lt;div&gt;km_plot()&lt;/div&gt;&lt;div&gt;cox_func()}&lt;/div&gt;" style="whiteSpace=wrap;html=1;shadow=1;fontSize=18;fillColor=#f5f5f5;strokeColor=#666666;align=left;" parent="1" vertex="1">
          <mxGeometry x="50" y="10" width="300" height="250" as="geometry" />
        </mxCell>
        <mxCell id="ELFRvHjd7mSDhtuIkThb-26" style="edgeStyle=orthogonalEdgeStyle;rounded=0;orthogonalLoop=1;jettySize=auto;html=1;exitX=1;exitY=0.5;exitDx=0;exitDy=0;entryX=0;entryY=0.5;entryDx=0;entryDy=0;" edge="1" parent="1" source="x2cQxs7v7Ajx9AN8LlFZ-26" target="x2cQxs7v7Ajx9AN8LlFZ-27">
          <mxGeometry relative="1" as="geometry" />
        </mxCell>
        <mxCell id="x2cQxs7v7Ajx9AN8LlFZ-26" value="&lt;div&gt;&lt;div&gt;&lt;b&gt;def&amp;nbsp;&lt;/b&gt;save_performance_result(outcome, grouping_data):&lt;/div&gt;&lt;div&gt;&lt;span style=&quot;background-color: initial; white-space: pre;&quot;&gt;&#x9;&lt;/span&gt;&lt;/div&gt;&lt;div&gt;&lt;span style=&quot;white-space: pre;&quot;&gt;&#x9;&lt;/span&gt;# classifier별 result, feature, parameter excel 저장&lt;/div&gt;&lt;div&gt;&lt;br&gt;&lt;/div&gt;&lt;div&gt;&lt;span style=&quot;background-color: initial;&quot;&gt;&lt;span style=&quot;white-space: pre;&quot;&gt;&#x9;&lt;/span&gt;perform_importance_hyperparam()&lt;/span&gt;&lt;/div&gt;&lt;div&gt;&lt;span style=&quot;background-color: initial; white-space: pre;&quot;&gt;&lt;span style=&quot;white-space: pre;&quot;&gt;&#x9;&lt;/span&gt;&#x9;&lt;/span&gt;&lt;/div&gt;&lt;div&gt;&lt;span style=&quot;white-space: pre;&quot;&gt;&#x9;&lt;/span&gt;&lt;b&gt;return&lt;/b&gt;&lt;/div&gt;&lt;/div&gt;" style="whiteSpace=wrap;html=1;shadow=1;fontSize=18;fillColor=#f5f5f5;strokeColor=#666666;align=left;" parent="1" vertex="1">
          <mxGeometry x="440" y="170" width="480" height="210" as="geometry" />
        </mxCell>
        <mxCell id="ELFRvHjd7mSDhtuIkThb-58" style="edgeStyle=orthogonalEdgeStyle;rounded=0;orthogonalLoop=1;jettySize=auto;html=1;exitX=1;exitY=0.5;exitDx=0;exitDy=0;entryX=0;entryY=0.5;entryDx=0;entryDy=0;" edge="1" parent="1" source="x2cQxs7v7Ajx9AN8LlFZ-27" target="x2cQxs7v7Ajx9AN8LlFZ-30">
          <mxGeometry relative="1" as="geometry" />
        </mxCell>
        <mxCell id="ELFRvHjd7mSDhtuIkThb-60" style="edgeStyle=orthogonalEdgeStyle;rounded=0;orthogonalLoop=1;jettySize=auto;html=1;exitX=1;exitY=0.5;exitDx=0;exitDy=0;entryX=0;entryY=0.5;entryDx=0;entryDy=0;" edge="1" parent="1" source="x2cQxs7v7Ajx9AN8LlFZ-27" target="x2cQxs7v7Ajx9AN8LlFZ-29">
          <mxGeometry relative="1" as="geometry" />
        </mxCell>
        <mxCell id="ELFRvHjd7mSDhtuIkThb-61" style="edgeStyle=orthogonalEdgeStyle;rounded=0;orthogonalLoop=1;jettySize=auto;html=1;exitX=1;exitY=0.5;exitDx=0;exitDy=0;entryX=0;entryY=0.25;entryDx=0;entryDy=0;" edge="1" parent="1" source="x2cQxs7v7Ajx9AN8LlFZ-27" target="Af6Ompb2Hb0SvwPUi7oJ-2">
          <mxGeometry relative="1" as="geometry" />
        </mxCell>
        <mxCell id="x2cQxs7v7Ajx9AN8LlFZ-27" value="&lt;div&gt;&lt;div&gt;&lt;b&gt;def&amp;nbsp;&lt;/b&gt;perform_importance_hyperparam(classifier, grouping_data, outcome):&lt;/div&gt;&lt;div&gt;&lt;span style=&quot;background-color: initial; white-space: pre;&quot;&gt;&#x9;&lt;/span&gt;&lt;/div&gt;&lt;div&gt;&lt;span style=&quot;white-space: pre;&quot;&gt;&#x9;&lt;/span&gt;# performance result, feature importance, hyperparameter return&lt;br&gt;&lt;/div&gt;&lt;div&gt;&lt;br&gt;&lt;/div&gt;&lt;div&gt;&lt;span style=&quot;background-color: initial;&quot;&gt;&lt;span style=&quot;white-space: pre;&quot;&gt;&#x9;&lt;/span&gt;fold_prediction_importance_hyperparam()&lt;/span&gt;&lt;span style=&quot;background-color: initial; white-space: pre;&quot;&gt;&#x9;&lt;/span&gt;&lt;/div&gt;&lt;div&gt;&lt;span style=&quot;background-color: initial;&quot;&gt;&lt;span style=&quot;white-space: pre;&quot;&gt;&#x9;&lt;/span&gt;fold_perform()&lt;/span&gt;&lt;/div&gt;&lt;div&gt;&lt;span style=&quot;background-color: initial;&quot;&gt;&lt;span style=&quot;white-space: pre;&quot;&gt;&#x9;&lt;/span&gt;plot_feature_importance()&lt;br&gt;&lt;/span&gt;&lt;/div&gt;&lt;div&gt;&lt;span style=&quot;background-color: initial;&quot;&gt;&lt;span style=&quot;white-space: pre;&quot;&gt;&#x9;&lt;/span&gt;mean_perform()&lt;br&gt;&lt;/span&gt;&lt;/div&gt;&lt;div&gt;&lt;span style=&quot;background-color: initial; white-space: pre;&quot;&gt;&lt;span style=&quot;white-space: pre;&quot;&gt;&#x9;&lt;/span&gt;&#x9;&lt;/span&gt;&lt;/div&gt;&lt;div&gt;&lt;span style=&quot;white-space: pre;&quot;&gt;&#x9;&lt;/span&gt;&lt;b&gt;return &lt;/b&gt;performance_result, feature_importance_list, hyperparameter&lt;/div&gt;&lt;/div&gt;" style="whiteSpace=wrap;html=1;shadow=1;fontSize=18;fillColor=#f5f5f5;strokeColor=#666666;align=left;" parent="1" vertex="1">
          <mxGeometry x="970" y="170" width="550" height="320" as="geometry" />
        </mxCell>
        <mxCell id="x2cQxs7v7Ajx9AN8LlFZ-28" value="&lt;div&gt;&lt;div&gt;&lt;b&gt;def&amp;nbsp;&lt;/b&gt;fold_prediction_importance_hyperparam(x, outcome_label, classifier, outcome, hyperaprameter, featuren_name):&lt;/div&gt;&lt;div&gt;&lt;span style=&quot;background-color: initial; white-space: pre;&quot;&gt;&#x9;&lt;/span&gt;&lt;/div&gt;&lt;div&gt;&lt;span style=&quot;white-space: pre;&quot;&gt;&#x9;&lt;/span&gt;# classifeir를 학습+&lt;span style=&quot;background-color: initial;&quot;&gt;&lt;span style=&quot;white-space: pre;&quot;&gt;&#x9;&lt;/span&gt;fold별 정답(outcome label)를 예측한 결과, 실제 정답, 예측한 확률값, feature별 importance, gridsearch에 따른 hyperparamter list&lt;/span&gt;&lt;/div&gt;&lt;div&gt;&lt;br&gt;&lt;/div&gt;&lt;div&gt;&lt;span style=&quot;background-color: initial; white-space: pre;&quot;&gt;&lt;span style=&quot;white-space: pre;&quot;&gt;&#x9;&lt;/span&gt;&#x9;&lt;/span&gt;&lt;/div&gt;&lt;div&gt;&lt;span style=&quot;white-space: pre;&quot;&gt;&#x9;&lt;/span&gt;&lt;b&gt;return &lt;/b&gt;performance_result, feature_importance_list, hyperparameter&lt;/div&gt;&lt;/div&gt;" style="whiteSpace=wrap;html=1;shadow=1;fontSize=18;fillColor=#ABABAB;strokeColor=#666666;align=left;" parent="1" vertex="1">
          <mxGeometry x="1650" y="170" width="710" height="210" as="geometry" />
        </mxCell>
        <mxCell id="ELFRvHjd7mSDhtuIkThb-71" style="edgeStyle=orthogonalEdgeStyle;rounded=0;orthogonalLoop=1;jettySize=auto;html=1;exitX=1;exitY=0.5;exitDx=0;exitDy=0;entryX=0;entryY=0.5;entryDx=0;entryDy=0;" edge="1" parent="1" source="x2cQxs7v7Ajx9AN8LlFZ-29" target="x2cQxs7v7Ajx9AN8LlFZ-31">
          <mxGeometry relative="1" as="geometry" />
        </mxCell>
        <mxCell id="x2cQxs7v7Ajx9AN8LlFZ-29" value="&lt;div&gt;&lt;b&gt;def&amp;nbsp;&lt;/b&gt;fold_perform(real, pred, prob, classifier_name, &lt;i&gt;outcome&lt;/i&gt;):&lt;/div&gt;&lt;div&gt;&lt;span style=&quot;background-color: initial; white-space: pre;&quot;&gt;&#x9;&lt;/span&gt;&lt;/div&gt;&lt;div&gt;&lt;span style=&quot;white-space: pre;&quot;&gt;&#x9;&lt;/span&gt;# cross-validation 결과&lt;/div&gt;&lt;div&gt;&lt;span style=&quot;background-color: initial;&quot;&gt;&lt;span style=&quot;white-space: pre;&quot;&gt;&#x9;&lt;/span&gt;roc_curve_func()&lt;/span&gt;&lt;span style=&quot;background-color: initial; white-space: pre;&quot;&gt;&#x9;&lt;/span&gt;&lt;br&gt;&lt;/div&gt;&lt;div&gt;&lt;span style=&quot;background-color: initial; white-space: pre;&quot;&gt;&lt;span style=&quot;white-space: pre;&quot;&gt;&#x9;&lt;/span&gt;&#x9;&lt;/span&gt;&lt;/div&gt;&lt;div&gt;&lt;span style=&quot;white-space: pre;&quot;&gt;&#x9;&lt;/span&gt;&lt;b&gt;return &lt;/b&gt;best_fold, mean_accuracy, mean_se, mean_sp, mean_ppv, mean_npv, mean_auc, performance_result&lt;br&gt;&lt;/div&gt;" style="whiteSpace=wrap;html=1;shadow=1;fontSize=18;fillColor=#f5f5f5;strokeColor=#666666;align=left;" parent="1" vertex="1">
          <mxGeometry x="1650" y="440" width="710" height="210" as="geometry" />
        </mxCell>
        <mxCell id="x2cQxs7v7Ajx9AN8LlFZ-30" value="&lt;div&gt;&lt;b&gt;def&amp;nbsp;&lt;/b&gt;plot_feature_importance(feature__importance, feature_name, classifier_name):&lt;/div&gt;&lt;div&gt;&lt;span style=&quot;background-color: initial; white-space: pre;&quot;&gt;&#x9;&lt;/span&gt;&lt;/div&gt;&lt;div&gt;&lt;span style=&quot;white-space: pre;&quot;&gt;&#x9;&lt;/span&gt;# feature importance 값 bar plotting (category별로 그룹핑)&lt;/div&gt;&lt;div&gt;&lt;span style=&quot;background-color: initial; white-space: pre;&quot;&gt;&#x9;&lt;/span&gt;&lt;span style=&quot;background-color: initial; white-space: pre;&quot;&gt;&#x9;&lt;/span&gt;&lt;br&gt;&lt;/div&gt;&lt;div&gt;&lt;/div&gt;&lt;div&gt;&lt;span style=&quot;white-space: pre;&quot;&gt;&#x9;&lt;/span&gt;&lt;b&gt;return &lt;/b&gt;feature_importance_category&lt;/div&gt;" style="whiteSpace=wrap;html=1;shadow=1;fontSize=18;fillColor=#ABABAB;strokeColor=#666666;align=left;" parent="1" vertex="1">
          <mxGeometry x="1650" y="710" width="720" height="210" as="geometry" />
        </mxCell>
        <mxCell id="ELFRvHjd7mSDhtuIkThb-35" style="edgeStyle=orthogonalEdgeStyle;rounded=0;orthogonalLoop=1;jettySize=auto;html=1;exitX=1;exitY=0.5;exitDx=0;exitDy=0;" edge="1" parent="1" source="x2cQxs7v7Ajx9AN8LlFZ-31" target="Af6Ompb2Hb0SvwPUi7oJ-1">
          <mxGeometry relative="1" as="geometry" />
        </mxCell>
        <mxCell id="x2cQxs7v7Ajx9AN8LlFZ-31" value="&lt;div&gt;&lt;b&gt;def&amp;nbsp;&lt;/b&gt;roc_curve_func(pred, real, prob, save_file):&lt;/div&gt;&lt;div&gt;&lt;span style=&quot;background-color: initial; white-space: pre;&quot;&gt;&#x9;&lt;/span&gt;&lt;/div&gt;&lt;div&gt;&lt;span style=&quot;white-space: pre;&quot;&gt;&#x9;&lt;/span&gt;# roc curve plotting&lt;/div&gt;&lt;div&gt;&lt;span style=&quot;background-color: initial;&quot;&gt;&lt;br&gt;&lt;/span&gt;&lt;/div&gt;&lt;div&gt;&lt;span style=&quot;background-color: initial;&quot;&gt;&lt;span style=&quot;white-space: pre;&quot;&gt;&#x9;&lt;/span&gt;find_optimal_cutoff()&lt;/span&gt;&lt;/div&gt;&lt;div&gt;&lt;span style=&quot;background-color: initial; white-space: pre;&quot;&gt;&#x9;&lt;/span&gt;&lt;br&gt;&lt;/div&gt;&lt;div&gt;&lt;span style=&quot;white-space: pre;&quot;&gt;&#x9;&lt;/span&gt;&lt;b&gt;return &lt;/b&gt;se, sp, se_ci, sp_ci, ppv, npv, ppv_ci, npv_ci, optimal_threshold&lt;br&gt;&lt;/div&gt;" style="whiteSpace=wrap;html=1;shadow=1;fontSize=18;fillColor=#f5f5f5;strokeColor=#666666;align=left;" parent="1" vertex="1">
          <mxGeometry x="2470" y="440" width="560" height="210" as="geometry" />
        </mxCell>
        <mxCell id="ELFRvHjd7mSDhtuIkThb-44" style="edgeStyle=orthogonalEdgeStyle;rounded=0;orthogonalLoop=1;jettySize=auto;html=1;exitX=1;exitY=0.5;exitDx=0;exitDy=0;entryX=0;entryY=0.5;entryDx=0;entryDy=0;" edge="1" parent="1" source="Af6Ompb2Hb0SvwPUi7oJ-1" target="ELFRvHjd7mSDhtuIkThb-42">
          <mxGeometry relative="1" as="geometry" />
        </mxCell>
        <mxCell id="Af6Ompb2Hb0SvwPUi7oJ-1" value="&lt;div&gt;&lt;b&gt;def&amp;nbsp;&lt;/b&gt;find_optimal_cutoff(real, prob, pred):&lt;/div&gt;&lt;div&gt;&lt;span style=&quot;background-color: initial; white-space: pre;&quot;&gt;&#x9;&lt;/span&gt;&lt;/div&gt;&lt;div&gt;&lt;br&gt;&lt;/div&gt;&lt;div&gt;&lt;div&gt;&lt;span style=&quot;white-space: pre;&quot;&gt;&#x9;&lt;/span&gt;sensitivity_and_specificity_with_confidence_intervals()&lt;br&gt;&lt;/div&gt;&lt;div&gt;&lt;span style=&quot;background-color: initial;&quot;&gt;&lt;span style=&quot;white-space: pre;&quot;&gt;&#x9;&lt;/span&gt;ppv_and_npv_with_confidence_intervals()&lt;/span&gt;&lt;/div&gt;&lt;/div&gt;&lt;div&gt;&lt;span style=&quot;background-color: initial; white-space: pre;&quot;&gt;&#x9;&lt;/span&gt;&lt;br&gt;&lt;/div&gt;&lt;div&gt;&lt;span style=&quot;white-space: pre;&quot;&gt;&#x9;&lt;/span&gt;&lt;b&gt;return&amp;nbsp;&lt;/b&gt;&lt;/div&gt;" style="whiteSpace=wrap;html=1;shadow=1;fontSize=18;fillColor=#f5f5f5;strokeColor=#666666;align=left;" parent="1" vertex="1">
          <mxGeometry x="3120" y="440" width="560" height="210" as="geometry" />
        </mxCell>
        <mxCell id="ELFRvHjd7mSDhtuIkThb-49" style="edgeStyle=orthogonalEdgeStyle;rounded=0;orthogonalLoop=1;jettySize=auto;html=1;exitX=1;exitY=0.5;exitDx=0;exitDy=0;entryX=0;entryY=0.5;entryDx=0;entryDy=0;" edge="1" parent="1" source="Af6Ompb2Hb0SvwPUi7oJ-2" target="ELFRvHjd7mSDhtuIkThb-43">
          <mxGeometry relative="1" as="geometry" />
        </mxCell>
        <mxCell id="ELFRvHjd7mSDhtuIkThb-73" style="edgeStyle=orthogonalEdgeStyle;rounded=0;orthogonalLoop=1;jettySize=auto;html=1;exitX=1;exitY=0.25;exitDx=0;exitDy=0;entryX=0;entryY=0.75;entryDx=0;entryDy=0;" edge="1" parent="1" source="Af6Ompb2Hb0SvwPUi7oJ-2" target="x2cQxs7v7Ajx9AN8LlFZ-31">
          <mxGeometry relative="1" as="geometry">
            <Array as="points">
              <mxPoint x="2400" y="1023" />
              <mxPoint x="2400" y="598" />
            </Array>
          </mxGeometry>
        </mxCell>
        <mxCell id="Af6Ompb2Hb0SvwPUi7oJ-2" value="&lt;div&gt;&lt;b&gt;def&amp;nbsp;&lt;/b&gt;mean_perform(real, pred, prob, classifier_name, &lt;i&gt;outcome&lt;/i&gt;):&lt;/div&gt;&lt;div&gt;&lt;span style=&quot;background-color: initial; white-space: pre;&quot;&gt;&#x9;&lt;/span&gt;&lt;/div&gt;&lt;div&gt;&lt;span style=&quot;white-space: pre;&quot;&gt;&#x9;&lt;/span&gt;# metric값들의 평균 값&lt;/div&gt;&lt;div&gt;&lt;div&gt;&lt;span style=&quot;background-color: initial;&quot;&gt;&lt;span style=&quot;white-space: pre;&quot;&gt;&#x9;&lt;/span&gt;&lt;/span&gt;&lt;span style=&quot;background-color: initial;&quot;&gt;auc_ci_Delong()&lt;/span&gt;&lt;/div&gt;&lt;div&gt;&lt;span style=&quot;background-color: initial;&quot;&gt;&lt;span style=&quot;white-space: pre;&quot;&gt;&#x9;&lt;/span&gt;roc_curve_func()&lt;/span&gt;&lt;span style=&quot;background-color: initial; white-space: pre;&quot;&gt;&#x9;&lt;/span&gt;&lt;/div&gt;&lt;/div&gt;&lt;div&gt;&lt;br&gt;&lt;/div&gt;&lt;div&gt;&lt;span style=&quot;background-color: initial; white-space: pre;&quot;&gt;&lt;span style=&quot;white-space: pre;&quot;&gt;&#x9;&lt;/span&gt;&#x9;&lt;/span&gt;&lt;/div&gt;&lt;div&gt;&lt;/div&gt;&lt;div&gt;&lt;span style=&quot;white-space: pre;&quot;&gt;&#x9;&lt;/span&gt;&lt;b&gt;return &lt;/b&gt;feature_importance_category&lt;/div&gt;" style="whiteSpace=wrap;html=1;shadow=1;fontSize=18;fillColor=#f5f5f5;strokeColor=#666666;align=left;" parent="1" vertex="1">
          <mxGeometry x="1650" y="970" width="710" height="210" as="geometry" />
        </mxCell>
        <mxCell id="ELFRvHjd7mSDhtuIkThb-74" style="edgeStyle=orthogonalEdgeStyle;rounded=0;orthogonalLoop=1;jettySize=auto;html=1;exitX=1;exitY=0.75;exitDx=0;exitDy=0;entryX=0;entryY=0.25;entryDx=0;entryDy=0;" edge="1" parent="1" source="Af6Ompb2Hb0SvwPUi7oJ-3" target="ELFRvHjd7mSDhtuIkThb-46">
          <mxGeometry relative="1" as="geometry">
            <Array as="points">
              <mxPoint x="940" y="1128" />
              <mxPoint x="940" y="1240" />
              <mxPoint x="2400" y="1240" />
              <mxPoint x="2400" y="1413" />
            </Array>
          </mxGeometry>
        </mxCell>
        <mxCell id="ELFRvHjd7mSDhtuIkThb-75" style="edgeStyle=orthogonalEdgeStyle;rounded=0;orthogonalLoop=1;jettySize=auto;html=1;exitX=1;exitY=0.5;exitDx=0;exitDy=0;entryX=0;entryY=0.5;entryDx=0;entryDy=0;" edge="1" parent="1" source="Af6Ompb2Hb0SvwPUi7oJ-3" target="Af6Ompb2Hb0SvwPUi7oJ-5">
          <mxGeometry relative="1" as="geometry" />
        </mxCell>
        <mxCell id="Af6Ompb2Hb0SvwPUi7oJ-3" value="&lt;div&gt;&lt;b&gt;def&amp;nbsp;&lt;/b&gt;save_concat_cv_result(outcome, grouping_data):&lt;/div&gt;&lt;div&gt;&lt;span style=&quot;background-color: initial; white-space: pre;&quot;&gt;&#x9;&lt;/span&gt;&lt;/div&gt;&lt;div&gt;&lt;span style=&quot;white-space: pre;&quot;&gt;&#x9;&lt;/span&gt;# classifier별 result, feature, parameter excel 저장&lt;/div&gt;&lt;div&gt;&lt;br&gt;&lt;/div&gt;&lt;div&gt;&lt;span style=&quot;background-color: initial;&quot;&gt;&lt;span style=&quot;white-space: pre;&quot;&gt;&#x9;&lt;/span&gt;concat_prediction_cv_pipeline()&lt;/span&gt;&lt;/div&gt;&lt;div&gt;&lt;span style=&quot;white-space: pre;&quot;&gt;&#x9;&lt;/span&gt;delong_roc_test()&lt;br&gt;&lt;/div&gt;&lt;div&gt;&lt;br&gt;&lt;/div&gt;&lt;div&gt;&lt;span style=&quot;white-space: pre;&quot;&gt;&#x9;&lt;/span&gt;&lt;b&gt;return&lt;/b&gt;&lt;/div&gt;" style="whiteSpace=wrap;html=1;shadow=1;fontSize=18;fillColor=#f5f5f5;strokeColor=#666666;align=left;" parent="1" vertex="1">
          <mxGeometry x="440" y="970" width="480" height="210" as="geometry" />
        </mxCell>
        <mxCell id="ELFRvHjd7mSDhtuIkThb-76" style="edgeStyle=orthogonalEdgeStyle;rounded=0;orthogonalLoop=1;jettySize=auto;html=1;exitX=1;exitY=0.5;exitDx=0;exitDy=0;entryX=0;entryY=0.5;entryDx=0;entryDy=0;" edge="1" parent="1" source="Af6Ompb2Hb0SvwPUi7oJ-5" target="Af6Ompb2Hb0SvwPUi7oJ-2">
          <mxGeometry relative="1" as="geometry" />
        </mxCell>
        <mxCell id="Af6Ompb2Hb0SvwPUi7oJ-5" value="&lt;div&gt;&lt;b&gt;def&amp;nbsp;&lt;/b&gt;concat_prediction_cv_pipeline(x, outcome_label, classifier, outcome, feature_name):&lt;/div&gt;&lt;div&gt;&lt;span style=&quot;background-color: initial; white-space: pre;&quot;&gt;&#x9;&lt;/span&gt;&lt;/div&gt;&lt;div&gt;&lt;span style=&quot;white-space: pre;&quot;&gt;&#x9;&lt;/span&gt;# classifier별&amp;nbsp;&lt;/div&gt;&lt;div&gt;&lt;br&gt;&lt;/div&gt;&lt;div&gt;&lt;span style=&quot;background-color: initial;&quot;&gt;&lt;span style=&quot;white-space: pre;&quot;&gt;&#x9;&lt;/span&gt;mean_perform()&lt;/span&gt;&lt;/div&gt;&lt;div&gt;&lt;br&gt;&lt;/div&gt;&lt;div&gt;&lt;span style=&quot;white-space: pre;&quot;&gt;&#x9;&lt;/span&gt;&lt;b&gt;return&amp;nbsp;&lt;/b&gt;&lt;span style=&quot;background-color: initial;&quot;&gt;concat_result, real_set, prob_set&lt;/span&gt;&lt;/div&gt;" style="whiteSpace=wrap;html=1;shadow=1;fontSize=18;fillColor=#f5f5f5;strokeColor=#666666;align=left;" parent="1" vertex="1">
          <mxGeometry x="970" y="970" width="520" height="210" as="geometry" />
        </mxCell>
        <mxCell id="ELFRvHjd7mSDhtuIkThb-82" style="edgeStyle=orthogonalEdgeStyle;rounded=0;orthogonalLoop=1;jettySize=auto;html=1;exitX=1;exitY=0.5;exitDx=0;exitDy=0;" edge="1" parent="1" source="Af6Ompb2Hb0SvwPUi7oJ-8" target="Af6Ompb2Hb0SvwPUi7oJ-9">
          <mxGeometry relative="1" as="geometry" />
        </mxCell>
        <mxCell id="ELFRvHjd7mSDhtuIkThb-83" style="edgeStyle=orthogonalEdgeStyle;rounded=0;orthogonalLoop=1;jettySize=auto;html=1;exitX=1;exitY=0.75;exitDx=0;exitDy=0;entryX=0;entryY=0.5;entryDx=0;entryDy=0;" edge="1" parent="1" source="Af6Ompb2Hb0SvwPUi7oJ-8" target="Af6Ompb2Hb0SvwPUi7oJ-10">
          <mxGeometry relative="1" as="geometry" />
        </mxCell>
        <mxCell id="Af6Ompb2Hb0SvwPUi7oJ-8" value="&lt;div&gt;&lt;b&gt;def&amp;nbsp;&lt;/b&gt;save_best_result(outcome, grouping_data):&lt;/div&gt;&lt;div&gt;&lt;span style=&quot;background-color: initial; white-space: pre;&quot;&gt;&#x9;&lt;/span&gt;&lt;/div&gt;&lt;div&gt;&lt;span style=&quot;white-space: pre;&quot;&gt;&#x9;&lt;/span&gt;# classifier별 best result 불러오고 result, feature, parameter excel 저장&lt;/div&gt;&lt;div&gt;&lt;br&gt;&lt;/div&gt;&lt;div&gt;&lt;span style=&quot;background-color: initial;&quot;&gt;&lt;span style=&quot;white-space: pre;&quot;&gt;&#x9;&lt;/span&gt;load_best_cv()&lt;/span&gt;&lt;/div&gt;&lt;div&gt;&lt;span style=&quot;white-space: pre;&quot;&gt;&#x9;&lt;/span&gt;best_cv_plot()&lt;br&gt;&lt;/div&gt;&lt;div&gt;&lt;br&gt;&lt;/div&gt;&lt;div&gt;&lt;span style=&quot;white-space: pre;&quot;&gt;&#x9;&lt;/span&gt;&lt;b&gt;return&lt;/b&gt;&lt;/div&gt;" style="whiteSpace=wrap;html=1;shadow=1;fontSize=18;fillColor=#f5f5f5;strokeColor=#666666;align=left;" parent="1" vertex="1">
          <mxGeometry x="440" y="1280" width="480" height="210" as="geometry" />
        </mxCell>
        <mxCell id="Af6Ompb2Hb0SvwPUi7oJ-9" value="&lt;div&gt;&lt;b&gt;def &lt;/b&gt;load_best_cv(classifier, outcome):&lt;/div&gt;&lt;div&gt;&lt;span style=&quot;background-color: initial; white-space: pre;&quot;&gt;&#x9;&lt;/span&gt;&lt;/div&gt;&lt;div&gt;&lt;span style=&quot;white-space: pre;&quot;&gt;&#x9;&lt;/span&gt;# best model pkl값을 불러옴&lt;/div&gt;&lt;div&gt;&lt;br&gt;&lt;/div&gt;&lt;div&gt;&lt;span style=&quot;white-space: pre;&quot;&gt;&#x9;&lt;/span&gt;&lt;b&gt;return &lt;/b&gt;clf, best_fold&lt;/div&gt;" style="whiteSpace=wrap;html=1;shadow=1;fontSize=18;fillColor=#ABABAB;strokeColor=#666666;align=left;" parent="1" vertex="1">
          <mxGeometry x="970" y="1280" width="520" height="210" as="geometry" />
        </mxCell>
        <mxCell id="ELFRvHjd7mSDhtuIkThb-79" style="edgeStyle=orthogonalEdgeStyle;rounded=0;orthogonalLoop=1;jettySize=auto;html=1;exitX=1;exitY=0.25;exitDx=0;exitDy=0;entryX=0;entryY=0.75;entryDx=0;entryDy=0;" edge="1" parent="1" source="Af6Ompb2Hb0SvwPUi7oJ-10" target="Af6Ompb2Hb0SvwPUi7oJ-2">
          <mxGeometry relative="1" as="geometry" />
        </mxCell>
        <mxCell id="ELFRvHjd7mSDhtuIkThb-84" style="edgeStyle=orthogonalEdgeStyle;rounded=0;orthogonalLoop=1;jettySize=auto;html=1;exitX=1;exitY=0.5;exitDx=0;exitDy=0;" edge="1" parent="1" source="Af6Ompb2Hb0SvwPUi7oJ-10" target="ELFRvHjd7mSDhtuIkThb-46">
          <mxGeometry relative="1" as="geometry" />
        </mxCell>
        <mxCell id="Af6Ompb2Hb0SvwPUi7oJ-10" value="&lt;div&gt;&lt;b&gt;def &lt;/b&gt;best_cv_plot(classifier, outcome):&lt;/div&gt;&lt;div&gt;&lt;span style=&quot;background-color: initial; white-space: pre;&quot;&gt;&#x9;&lt;/span&gt;&lt;/div&gt;&lt;div&gt;&lt;span style=&quot;white-space: pre;&quot;&gt;&#x9;&lt;/span&gt;# classifier별 delong test 결과 print 및 roc curve 모두 겹쳐서 plotting&lt;/div&gt;&lt;div&gt;&lt;span style=&quot;white-space: pre;&quot;&gt;&#x9;&lt;/span&gt;mean_perform()&lt;br&gt;&lt;/div&gt;&lt;div&gt;&lt;span style=&quot;white-space: pre;&quot;&gt;&#x9;&lt;/span&gt;delong_roc_test()&lt;br&gt;&lt;/div&gt;&lt;div&gt;&lt;br&gt;&lt;/div&gt;&lt;div&gt;&lt;span style=&quot;white-space: pre;&quot;&gt;&#x9;&lt;/span&gt;&lt;b&gt;return &lt;/b&gt;all_result, pred_list, param_list&lt;/div&gt;" style="whiteSpace=wrap;html=1;shadow=1;fontSize=18;fillColor=#f5f5f5;strokeColor=#666666;align=left;" parent="1" vertex="1">
          <mxGeometry x="970" y="1550" width="520" height="210" as="geometry" />
        </mxCell>
        <mxCell id="ELFRvHjd7mSDhtuIkThb-24" style="edgeStyle=orthogonalEdgeStyle;rounded=0;orthogonalLoop=1;jettySize=auto;html=1;exitX=1;exitY=0.5;exitDx=0;exitDy=0;entryX=0.009;entryY=0.412;entryDx=0;entryDy=0;entryPerimeter=0;" edge="1" parent="1" source="x2cQxs7v7Ajx9AN8LlFZ-25" target="x2cQxs7v7Ajx9AN8LlFZ-24">
          <mxGeometry relative="1" as="geometry" />
        </mxCell>
        <mxCell id="ELFRvHjd7mSDhtuIkThb-42" value="&lt;div&gt;#statistics (class ?)&lt;/div&gt;&lt;div&gt;&lt;br&gt;&lt;/div&gt;&lt;div&gt;&lt;span style=&quot;background-color: initial;&quot;&gt;sensitivity_and_specificity_with_confidence_intervals()&lt;/span&gt;&lt;br&gt;&lt;/div&gt;&lt;div&gt;&lt;div&gt;&lt;span style=&quot;background-color: initial;&quot;&gt;ppv_and_npv_with_confidence_intervals()&lt;/span&gt;&lt;br&gt;&lt;/div&gt;&lt;div&gt;&lt;br&gt;&lt;/div&gt;&lt;div&gt;&lt;div&gt;&lt;div&gt;_proportion_confidence_interval()&lt;br&gt;&lt;/div&gt;&lt;div&gt;&lt;/div&gt;&lt;/div&gt;&lt;/div&gt;&lt;/div&gt;&lt;div&gt;&lt;br&gt;&lt;/div&gt;&lt;div&gt;&lt;br&gt;&lt;/div&gt;" style="whiteSpace=wrap;html=1;shadow=1;fontSize=18;fillColor=#7EA6E0;strokeColor=#666666;align=left;" vertex="1" parent="1">
          <mxGeometry x="3760" y="480" width="560" height="490" as="geometry" />
        </mxCell>
        <mxCell id="ELFRvHjd7mSDhtuIkThb-63" value="" style="edgeStyle=orthogonalEdgeStyle;rounded=0;orthogonalLoop=1;jettySize=auto;html=1;" edge="1" parent="1" source="ELFRvHjd7mSDhtuIkThb-43" target="ELFRvHjd7mSDhtuIkThb-53">
          <mxGeometry relative="1" as="geometry" />
        </mxCell>
        <mxCell id="ELFRvHjd7mSDhtuIkThb-43" value="&lt;div&gt;&lt;b&gt;def&amp;nbsp;&lt;/b&gt;auc_ci_Delong(real, prob):&lt;/div&gt;&lt;div&gt;&lt;span style=&quot;background-color: initial; white-space: pre;&quot;&gt;&#x9;&lt;/span&gt;&lt;/div&gt;&lt;div&gt;&lt;span style=&quot;background-color: initial; white-space: pre;&quot;&gt;&#x9;&lt;/span&gt;&lt;span style=&quot;background-color: initial;&quot;&gt;delong_roc_variance()&lt;/span&gt;&lt;br&gt;&lt;/div&gt;&lt;div&gt;&lt;div&gt;&lt;span style=&quot;background-color: initial; white-space: pre;&quot;&gt;&#x9;&lt;/span&gt;&lt;br&gt;&lt;/div&gt;&lt;/div&gt;&lt;div&gt;&lt;span style=&quot;white-space: pre;&quot;&gt;&#x9;&lt;/span&gt;&lt;b&gt;return&amp;nbsp;&lt;/b&gt;&lt;/div&gt;" style="whiteSpace=wrap;html=1;shadow=1;fontSize=18;fillColor=#f5f5f5;strokeColor=#666666;align=left;" vertex="1" parent="1">
          <mxGeometry x="2470" y="970" width="560" height="210" as="geometry" />
        </mxCell>
        <mxCell id="ELFRvHjd7mSDhtuIkThb-45" value="&lt;div&gt;&lt;span style=&quot;background-color: initial;&quot;&gt;compute_ground_truth_statistics&lt;/span&gt;&lt;span style=&quot;background-color: initial;&quot;&gt;()&lt;/span&gt;&lt;br&gt;&lt;/div&gt;&lt;div&gt;&lt;div&gt;calc_pvalue()&lt;br&gt;&lt;/div&gt;&lt;div&gt;fastDeLong()&lt;br&gt;&lt;/div&gt;&lt;div&gt;&lt;br&gt;&lt;/div&gt;&lt;div&gt;&lt;div&gt;&lt;div&gt;_proportion_confidence_interval()&lt;br&gt;&lt;/div&gt;&lt;div&gt;&lt;/div&gt;&lt;/div&gt;&lt;/div&gt;&lt;/div&gt;&lt;div&gt;fastDeLong_no_weights()&lt;br&gt;&lt;/div&gt;&lt;div&gt;&lt;br&gt;&lt;/div&gt;&lt;div&gt;compute_midrank_weight()&lt;br&gt;&lt;/div&gt;" style="whiteSpace=wrap;html=1;shadow=1;fontSize=18;fillColor=#7EA6E0;strokeColor=#666666;align=left;" vertex="1" parent="1">
          <mxGeometry x="3760" y="1060" width="560" height="490" as="geometry" />
        </mxCell>
        <mxCell id="ELFRvHjd7mSDhtuIkThb-65" style="edgeStyle=orthogonalEdgeStyle;rounded=0;orthogonalLoop=1;jettySize=auto;html=1;exitX=1;exitY=0.5;exitDx=0;exitDy=0;" edge="1" parent="1" source="ELFRvHjd7mSDhtuIkThb-46" target="ELFRvHjd7mSDhtuIkThb-45">
          <mxGeometry relative="1" as="geometry" />
        </mxCell>
        <mxCell id="ELFRvHjd7mSDhtuIkThb-46" value="&lt;div&gt;&lt;b&gt;def&amp;nbsp;&lt;/b&gt;delong_roc_test(real, prob):&lt;/div&gt;&lt;div&gt;&lt;span style=&quot;background-color: initial; white-space: pre;&quot;&gt;&#x9;&lt;/span&gt;&lt;/div&gt;&lt;div&gt;&lt;br&gt;&lt;/div&gt;&lt;div&gt;&lt;div&gt;&lt;span style=&quot;white-space: pre;&quot;&gt;&#x9;&lt;/span&gt;compute_ground_truth_statistics()&lt;br&gt;&lt;/div&gt;&lt;div&gt;&lt;span style=&quot;background-color: initial;&quot;&gt;&lt;span style=&quot;white-space: pre;&quot;&gt;&#x9;&lt;/span&gt;fastDeLong()&lt;/span&gt;&lt;/div&gt;&lt;/div&gt;&lt;div&gt;&lt;span style=&quot;background-color: initial;&quot;&gt;&lt;span style=&quot;white-space: pre;&quot;&gt;&#x9;&lt;/span&gt;calc_pvalue()&lt;br&gt;&lt;/span&gt;&lt;/div&gt;&lt;div&gt;&lt;span style=&quot;background-color: initial; white-space: pre;&quot;&gt;&#x9;&lt;/span&gt;&lt;br&gt;&lt;/div&gt;&lt;div&gt;&lt;span style=&quot;white-space: pre;&quot;&gt;&#x9;&lt;/span&gt;&lt;b&gt;return&amp;nbsp;&lt;/b&gt;&lt;/div&gt;" style="whiteSpace=wrap;html=1;shadow=1;fontSize=18;fillColor=#f5f5f5;strokeColor=#666666;align=left;" vertex="1" parent="1">
          <mxGeometry x="3120" y="1360" width="560" height="210" as="geometry" />
        </mxCell>
        <mxCell id="ELFRvHjd7mSDhtuIkThb-67" style="edgeStyle=orthogonalEdgeStyle;rounded=0;orthogonalLoop=1;jettySize=auto;html=1;exitX=1;exitY=0.5;exitDx=0;exitDy=0;entryX=0;entryY=0.25;entryDx=0;entryDy=0;" edge="1" parent="1" source="ELFRvHjd7mSDhtuIkThb-53" target="ELFRvHjd7mSDhtuIkThb-45">
          <mxGeometry relative="1" as="geometry" />
        </mxCell>
        <mxCell id="ELFRvHjd7mSDhtuIkThb-53" value="&lt;div&gt;&lt;b&gt;def&amp;nbsp;&lt;/b&gt;delong_roc_variance(real, prob):&lt;/div&gt;&lt;div&gt;&lt;span style=&quot;background-color: initial; white-space: pre;&quot;&gt;&#x9;&lt;/span&gt;&lt;/div&gt;&lt;div&gt;&lt;div&gt;&lt;span style=&quot;white-space: pre;&quot;&gt;&#x9;&lt;/span&gt;compute_ground_truth_statistics()&lt;br&gt;&lt;/div&gt;&lt;div&gt;&lt;span style=&quot;background-color: initial;&quot;&gt;&lt;span style=&quot;white-space: pre;&quot;&gt;&#x9;&lt;/span&gt;fastDeLong()&lt;/span&gt;&lt;/div&gt;&lt;/div&gt;&lt;div&gt;&lt;span style=&quot;background-color: initial; white-space: pre;&quot;&gt;&#x9;&lt;/span&gt;&lt;br&gt;&lt;/div&gt;&lt;div&gt;&lt;span style=&quot;white-space: pre;&quot;&gt;&#x9;&lt;/span&gt;&lt;b&gt;return&amp;nbsp;&lt;/b&gt;&lt;/div&gt;" style="whiteSpace=wrap;html=1;shadow=1;fontSize=18;fillColor=#f5f5f5;strokeColor=#666666;align=left;" vertex="1" parent="1">
          <mxGeometry x="3120" y="970" width="560" height="210" as="geometry" />
        </mxCell>
        <mxCell id="ELFRvHjd7mSDhtuIkThb-59" style="edgeStyle=orthogonalEdgeStyle;rounded=0;orthogonalLoop=1;jettySize=auto;html=1;exitX=1;exitY=0.5;exitDx=0;exitDy=0;entryX=0;entryY=0.571;entryDx=0;entryDy=0;entryPerimeter=0;" edge="1" parent="1" source="x2cQxs7v7Ajx9AN8LlFZ-27" target="x2cQxs7v7Ajx9AN8LlFZ-28">
          <mxGeometry relative="1" as="geometry" />
        </mxCell>
      </root>
    </mxGraphModel>
  </diagram>
</mxfile>
